<!-- Astronaut SVG without blue background -->
<svg viewBox="0 0 120 120" xmlns="http://www.w3.org/2000/svg">
  <!-- Helmet -->
  <circle cx="60" cy="45" r="35" fill="#e0e0e0" stroke="#b0b0b0" stroke-width="2"/>
  <circle cx="60" cy="45" r="30" fill="#f0f0f0" opacity="0.3"/>
  
  <!-- Reflection on helmet -->
  <ellipse cx="50" cy="35" rx="12" ry="18" fill="#ffffff" opacity="0.4"/>
  
  <!-- Face inside helmet -->
  <circle cx="60" cy="48" r="12" fill="#ffdbac"/>
  
  <!-- Eyes -->
  <circle cx="56" cy="45" r="2" fill="#000"/>
  <circle cx="64" cy="45" r="2" fill="#000"/>
  
  <!-- Mouth -->
  <path d="M 56 52 Q 60 55 64 52" stroke="#000" stroke-width="1" fill="none"/>
  
  <!-- Body -->
  <rect x="45" y="75" width="30" height="40" rx="5" fill="#ffffff"/>
  
  <!-- Chest control panel -->
  <rect x="52" y="82" width="16" height="12" rx="2" fill="#333"/>
  <circle cx="56" cy="88" r="1.5" fill="#ff0000"/>
  <circle cx="60" cy="88" r="1.5" fill="#00ff00"/>
  <circle cx="64" cy="88" r="1.5" fill="#0000ff"/>
  
  <!-- Arms -->
  <rect x="35" y="78" width="12" height="25" rx="6" fill="#ffffff"/>
  <rect x="73" y="78" width="12" height="25" rx="6" fill="#ffffff"/>
  
  <!-- Legs -->
  <rect x="48" y="110" width="8" height="20" rx="4" fill="#ffffff"/>
  <rect x="64" y="110" width="8" height="20" rx="4" fill="#ffffff"/>
  
  <!-- Boots -->
  <ellipse cx="52" cy="132" rx="6" ry="4" fill="#333"/>
  <ellipse cx="68" cy="132" rx="6" ry="4" fill="#333"/>
  
  <!-- Gloves -->
  <circle cx="41" cy="105" r="6" fill="#e0e0e0"/>
  <circle cx="79" cy="105" r="6" fill="#e0e0e0"/>
</svg>
